<svg xmlns="http://www.w3.org/2000/svg" xmlns:xlink="http://www.w3.org/1999/xlink" xmlns:xodm="http://www.corel.com/coreldraw/odm/2003" xml:space="preserve" version="1.1" fill="#FFFFFF" style="shape-rendering:geometricPrecision;text-rendering:geometricPrecision;image-rendering:optimizeQuality;" viewBox="0 0 8.4666 10.58325" x="0px" y="0px" fill-rule="evenodd" clip-rule="evenodd"><defs><style type="text/css">
   
    .fil0 {fill:#FFFFFF;fill-rule:nonzero}
   
  </style></defs><g><path class="fil0" fill="#FFFFFF" d="M1.433 6.4123c-0.1632,0 -0.2963,0.1331 -0.2963,0.2963l0 0.0689c0,0.1632 0.1331,0.2963 0.2963,0.2963l0.1935 0c0.1632,0 0.2963,-0.1331 0.2963,-0.2963l0 -0.0689c0,-0.1632 -0.1331,-0.2963 -0.2963,-0.2963l-0.1935 0zm3.9285 -4.9791c-0.0212,-0.0771 -0.0327,-0.1592 -0.0327,-0.244 0,-0.2203 0.0772,-0.4215 0.2018,-0.5683 0.1312,-0.1546 0.3145,-0.2504 0.5185,-0.2504 0.1922,0 0.3663,0.0857 0.4959,0.2256 0.1242,0.1342 0.2068,0.3194 0.2215,0.5249 0.0065,0.0931 -0.0637,0.1741 -0.1568,0.1806 -0.0931,0.0065 -0.1741,-0.0637 -0.1806,-0.1568 -0.0092,-0.1279 -0.0582,-0.2407 -0.1315,-0.3199 -0.0664,-0.0717 -0.1539,-0.1156 -0.2485,-0.1156 -0.1001,0 -0.1924,0.0498 -0.2605,0.13 -0.0747,0.088 -0.121,0.2117 -0.121,0.3499 0,0.0893 0.0193,0.1725 0.0532,0.244l0.8179 0c0.3904,0 0.7455,0.1598 1.0028,0.4171 0.2573,0.2573 0.4171,0.6124 0.4171,1.0028l0 3.8231c0,0.3904 -0.1598,0.7455 -0.4171,1.0028 -0.2573,0.2573 -0.6124,0.4171 -1.0028,0.4171l-4.6108 0c-0.3904,0 -0.7455,-0.1598 -1.0028,-0.4171 -0.2573,-0.2573 -0.4171,-0.6124 -0.4171,-1.0028l0 -3.8231c0,-0.3904 0.1598,-0.7455 0.4171,-1.0028 0.2144,-0.2144 0.4966,-0.3611 0.8106,-0.404 -0.0236,-0.0809 -0.0363,-0.1675 -0.0363,-0.2571 0,-0.2203 0.0772,-0.4215 0.2018,-0.5683 0.1312,-0.1546 0.3145,-0.2504 0.5185,-0.2504 0.1922,0 0.3663,0.0857 0.4959,0.2256 0.1242,0.1342 0.2068,0.3194 0.2215,0.5249 0.0065,0.0931 -0.0637,0.1741 -0.1568,0.1806 -0.0931,0.0065 -0.1741,-0.0637 -0.1806,-0.1568 -0.0092,-0.1279 -0.0582,-0.2407 -0.1315,-0.3199 -0.0663,-0.0716 -0.1539,-0.1156 -0.2485,-0.1156 -0.0999,0 -0.1924,0.0498 -0.2605,0.13 -0.0747,0.088 -0.121,0.2117 -0.121,0.3499 0,0.0893 0.0193,0.1725 0.0532,0.244l1.4554 0c-0.0212,-0.0772 -0.0326,-0.1592 -0.0326,-0.244 0,-0.2202 0.0771,-0.4214 0.2017,-0.5683 0.131,-0.1546 0.3144,-0.2504 0.5184,-0.2504 0.1922,0 0.3665,0.0856 0.496,0.2256 0.1243,0.1342 0.2068,0.3195 0.2215,0.5249 0.0065,0.0931 -0.0637,0.1741 -0.1568,0.1806 -0.0931,0.0065 -0.1741,-0.0637 -0.1806,-0.1568 -0.0092,-0.1279 -0.0582,-0.2407 -0.1315,-0.3199 -0.0663,-0.0717 -0.154,-0.1156 -0.2486,-0.1156 -0.1001,0 -0.1924,0.0498 -0.2604,0.13 -0.0747,0.088 -0.1209,0.2117 -0.1209,0.3499 0,0.0893 0.0193,0.1726 0.0531,0.244l1.4554 0zm-1.2249 4.9791c-0.1632,0 -0.2963,0.1331 -0.2963,0.2963l0 0.0689c0,0.1632 0.1331,0.2963 0.2963,0.2963l0.1935 0c0.1632,0 0.2963,-0.1331 0.2963,-0.2963l0 -0.0689c0,-0.1632 -0.1331,-0.2963 -0.2963,-0.2963l-0.1935 0zm-1.3518 0c-0.1632,0 -0.2963,0.1331 -0.2963,0.2963l0 0.0689c0,0.1632 0.1331,0.2963 0.2963,0.2963l0.1935 0c0.1632,0 0.2963,-0.1331 0.2963,-0.2963l0 -0.0689c0,-0.1632 -0.1331,-0.2963 -0.2963,-0.2963l-0.1935 0zm-1.3518 -1.3963c-0.1632,0 -0.2963,0.1331 -0.2963,0.2963l0 0.0689c0,0.1632 0.1331,0.2963 0.2963,0.2963l0.1935 0c0.1632,0 0.2963,-0.1331 0.2963,-0.2963l0 -0.0689c0,-0.1632 -0.1331,-0.2963 -0.2963,-0.2963l-0.1935 0zm5.4071 0c-0.1632,0 -0.2963,0.1331 -0.2963,0.2963l0 0.0689c0,0.1632 0.1331,0.2963 0.2963,0.2963l0.1935 0c0.1632,0 0.2963,-0.1331 0.2963,-0.2963l0 -0.0689c0,-0.1632 -0.1331,-0.2963 -0.2963,-0.2963l-0.1935 0zm-1.3517 0c-0.1632,0 -0.2963,0.1331 -0.2963,0.2963l0 0.0689c0,0.1632 0.1331,0.2963 0.2963,0.2963l0.1935 0c0.1632,0 0.2963,-0.1331 0.2963,-0.2963l0 -0.0689c0,-0.1632 -0.1331,-0.2963 -0.2963,-0.2963l-0.1935 0zm-1.3518 0c-0.1632,0 -0.2963,0.1331 -0.2963,0.2963l0 0.0689c0,0.1632 0.1331,0.2963 0.2963,0.2963l0.1935 0c0.1632,0 0.2963,-0.1331 0.2963,-0.2963l0 -0.0689c0,-0.1632 -0.1331,-0.2963 -0.2963,-0.2963l-0.1935 0zm-1.3518 0c-0.1632,0 -0.2963,0.1331 -0.2963,0.2963l0 0.0689c0,0.1632 0.1331,0.2963 0.2963,0.2963l0.1935 0c0.1632,0 0.2963,-0.1331 0.2963,-0.2963l0 -0.0689c0,-0.1632 -0.1331,-0.2963 -0.2963,-0.2963l-0.1935 0zm4.0553 -1.3964c-0.1632,0 -0.2963,0.1331 -0.2963,0.2963l0 0.0689c0,0.1632 0.1331,0.2963 0.2963,0.2963l0.1935 0c0.1632,0 0.2963,-0.1331 0.2963,-0.2963l0 -0.0689c0,-0.1632 -0.1331,-0.2963 -0.2963,-0.2963l-0.1935 0zm-1.3517 0c-0.1632,0 -0.2963,0.1331 -0.2963,0.2963l0 0.0689c0,0.1632 0.1331,0.2963 0.2963,0.2963l0.1935 0c0.1632,0 0.2963,-0.1331 0.2963,-0.2963l0 -0.0689c0,-0.1632 -0.1331,-0.2963 -0.2963,-0.2963l-0.1935 0zm-1.3518 0c-0.1632,0 -0.2963,0.1331 -0.2963,0.2963l0 0.0689c0,0.1632 0.1331,0.2963 0.2963,0.2963l0.1935 0c0.1632,0 0.2963,-0.1331 0.2963,-0.2963l0 -0.0689c0,-0.1632 -0.1331,-0.2963 -0.2963,-0.2963l-0.1935 0zm-1.3518 0c-0.1632,0 -0.2963,0.1331 -0.2963,0.2963l0 0.0689c0,0.1632 0.1331,0.2963 0.2963,0.2963l0.1935 0c0.1632,0 0.2963,-0.1331 0.2963,-0.2963l0 -0.0689c0,-0.1632 -0.1331,-0.2963 -0.2963,-0.2963l-0.1935 0zm-1.6478 -0.7278l6.1925 0c0.0467,0 0.0847,-0.038 0.0847,-0.0847 0,-0.0467 -0.038,-0.0847 -0.0847,-0.0847l-6.1925 0c-0.0467,0 -0.0847,0.038 -0.0847,0.0847 0,0.0467 0.038,0.0847 0.0847,0.0847z"/></g></svg>