<svg xmlns="http://www.w3.org/2000/svg" viewBox="0 0 24 30" fill="none" x="0px" y="0px"><path fill-rule="evenodd" clip-rule="evenodd" d="M7.16986 6.5076C7.36683 6.048 7.81876 5.75 8.31879 5.75H15.6812C16.1812 5.75 16.6332 6.048 16.8301 6.5076L18.0418 9.33475C13.4188 10.8796 10.1725 10.8884 5.94696 9.36104L7.16986 6.5076ZM3.59501 11.041C2.6846 11.2283 2 12.0342 2 13V16C2 16.7471 2.40961 17.3985 3.0165 17.7419C3.00561 17.8264 3 17.9125 3 18C3 20 3.89543 20 5 20C6.10457 20 7 20 7 18H17C17 20 17.8954 20 19 20C20.1046 20 21 20 21 18C21 17.9125 20.9944 17.8264 20.9835 17.7419C21.5904 17.3985 22 16.7471 22 16V13C22 12.0342 21.3154 11.2283 20.405 11.041L18.2089 5.91672C17.7755 4.90559 16.7813 4.25 15.6812 4.25H8.31879C7.21871 4.25 6.22448 4.90559 5.79114 5.91672L3.59501 11.041ZM5.5 16C6.32843 16 7 15.3284 7 14.5C7 13.6716 6.32843 13 5.5 13C4.67157 13 4 13.6716 4 14.5C4 15.3284 4.67157 16 5.5 16ZM20 14.5C20 15.3284 19.3284 16 18.5 16C17.6716 16 17 15.3284 17 14.5C17 13.6716 17.6716 13 18.5 13C19.3284 13 20 13.6716 20 14.5Z" fill="#FFFFFF"/></svg>