<svg xmlns="http://www.w3.org/2000/svg" xmlns:xlink="http://www.w3.org/1999/xlink" version="1.1" x="0px" y="0px" viewBox="0 0 48 60" enable-background="new 0 0 48 48" xml:space="preserve"><g><path d="M47.4,20.8l-7.1-6.5V3.5c0-0.8-0.7-1.5-1.5-1.5h-3.9c-0.8,0-1.5,0.7-1.5,1.5v4.4l-8-7.4c-0.8-0.7-1.9-0.7-2.7,0l-22,20.3   c-0.8,0.8-0.9,2-0.1,2.8c0.7,0.8,2,0.9,2.8,0.1L24,4.7l20.6,19.1c1.3,1,2.4,0.3,2.8-0.1C48.2,22.9,48.2,21.6,47.4,20.8z" fill="#FFFFFF"/><path  fill="#FFFFFF" d="M24,7.4c0,0-19.4,17.9-19.4,17.9V48H19V35.2h10V48h14.4V25.3C43.3,25.3,24,7.4,24,7.4z"/></g></svg>