<svg xmlns="http://www.w3.org/2000/svg" xmlns:xlink="http://www.w3.org/1999/xlink" fill="#FFFFFF" version="1.1" x="0px" y="0px" viewBox="0 0 100 125" style="enable-background:new 0 0 100 100;" xml:space="preserve"><style type="text/css">
	.st0{fill-rule:evenodd;clip-rule:evenodd; fill:#FFFFFF;}
</style><path d="M96.994339,77.393364c-4.4111633-9.2087631-11.9349289-15.2175674-22.6831665-17.8988113  c-1.6143875-0.4027252-3.3300781-0.0028-4.6187897,1.0501556l-8.9263191,7.2937698  c-1.743042,1.424202-4.2062225,1.607399-6.121933,0.4257889C45.2017899,62.4394608,37.5618629,54.79953,31.7372265,45.3573647  c-1.1816063-1.9157104-0.9984131-4.3789444,0.4257946-6.1219292l7.2937698-8.9263191  c1.0529518-1.2885723,1.4528809-3.0036011,1.0501556-4.6187878c-2.6812439-10.7477007-8.690052-18.2711105-17.8988132-22.6831684  c-1.4857445-0.7117641-3.2386112-0.6719036-4.6914597,0.1041763c-4.6306019,2.4729004-9.0612736,5.2717371-13.2583666,8.4179916  c-1.6074028,1.2046795-2.418488,3.1972647-2.0836008,5.1781263c3.0175612,17.8708916,12.673255,36.663929,28.3642502,52.3540306  c15.6915321,15.6915359,34.4838562,25.3465118,52.3540344,28.3642426c1.9806824,0.3342056,3.9726486-0.4768448,5.1781311-2.0835953  c3.146965-4.1970978,5.9450912-8.6277695,8.4179916-13.2583694c0.7753677-1.4535828,0.8152313-3.2063904,0.1034775-4.6921768  L96.994339,77.393364z"/></svg>